<svg width="25" height="25" fill="none" xmlns="http://www.w3.org/2000/svg"><path d="M19.077 4.603a1.47 1.47 0 1 0 0 2.94 1.47 1.47 0 0 0 0-2.94Zm-6.534 1.885a6.181 6.181 0 0 0-6.174 6.173 6.181 6.181 0 0 0 6.174 6.174 6.18 6.18 0 0 0 6.174-6.174 6.18 6.18 0 0 0-6.174-6.173Zm0 10.128a3.96 3.96 0 0 1-3.955-3.955 3.96 3.96 0 0 1 3.955-3.954 3.959 3.959 0 0 1 3.955 3.954 3.959 3.959 0 0 1-3.955 3.955ZM25 7.53A7.53 7.53 0 0 0 17.47 0H7.53A7.53 7.53 0 0 0 0 7.53v9.94A7.53 7.53 0 0 0 7.531 25h9.939A7.53 7.53 0 0 0 25 17.47V7.53Zm-2.358 9.94a5.171 5.171 0 0 1-5.172 5.172H7.53A5.172 5.172 0 0 1 2.36 17.47V7.53A5.173 5.173 0 0 1 7.53 2.36h9.939a5.172 5.172 0 0 1 5.172 5.171v9.94Z" fill="#fff"/></svg>